<svg width="980" height="171" viewBox="0 0 980 171" fill="none" xmlns="http://www.w3.org/2000/svg">
<path d="M61.824 141.072C96.96 141.072 118.848 125.712 118.848 97.296C118.848 44.112 32.64 67.344 32.64 38.736C32.64 27.6 42.624 22.8 56.448 22.8C72.96 22.8 82.752 29.52 84.096 41.808C84.288 42.768 84.864 43.344 85.824 43.344H113.28C114.24 43.344 115.008 42.768 114.816 41.616C110.784 13.008 89.088 0.719971 57.6 0.719971C23.232 0.719971 3.64796 16.464 3.64796 41.616C3.64796 94.992 89.472 70.992 89.472 101.328C89.472 114 79.872 119.184 62.4 119.184C40.32 119.184 33.408 109.2 31.68 94.224C31.488 93.264 30.912 92.688 29.952 92.688H2.49596C1.53596 92.688 0.959961 93.264 0.959961 94.224C2.11196 126.288 26.496 141.072 61.824 141.072Z" fill="#222222"/>
<path d="M160.9 3.59997H134.788C133.828 3.59997 133.252 4.17597 133.252 5.13597V27.984C133.252 28.944 133.828 29.52 134.788 29.52H160.9C161.86 29.52 162.436 28.944 162.436 27.984V5.13597C162.436 4.17597 161.86 3.59997 160.9 3.59997ZM162.052 88.656L162.436 40.656C162.436 39.504 161.86 39.12 160.9 39.12H134.788C133.828 39.12 133.252 39.504 133.252 40.656L133.636 88.656L133.252 136.464C133.252 137.616 133.828 138 134.788 138H160.9C161.86 138 162.436 137.616 162.436 136.464L162.052 88.656Z" fill="#222222"/>
<path d="M325.134 102.48V75.216C325.134 48.912 313.614 36.816 293.646 36.816C281.934 36.816 272.142 40.464 263.694 55.44C259.086 42.768 249.102 36.816 235.278 36.816C222.606 36.816 213.774 42 206.862 51.6L207.438 40.656C207.438 39.504 206.862 39.12 205.902 39.12H181.134C180.174 39.12 179.598 39.696 179.598 40.656V102.48L179.214 136.464C179.214 137.616 179.79 138 180.75 138H207.246C208.206 138 208.782 137.616 208.782 136.464L208.398 102.48V88.656C208.398 68.496 217.614 57.936 225.678 57.936C233.742 57.936 238.35 63.696 238.35 75.6V102.48L237.966 136.464C237.966 137.616 238.542 138 239.502 138H265.614C266.574 138 267.15 137.616 267.15 136.464L266.766 102.48V88.656C266.766 68.496 276.174 57.936 284.046 57.936C291.918 57.936 296.718 63.696 296.718 75.6V102.48L296.334 136.464C296.334 137.616 296.91 138 297.87 138H323.982C324.942 138 325.518 137.616 325.518 136.464L325.134 102.48Z" fill="#222222"/>
<path d="M398.289 37.2C386.001 37.2 376.401 42 369.489 50.256V5.13597C369.489 4.17597 368.913 3.59997 367.953 3.59997H342.225C341.265 3.59997 340.689 3.98397 340.689 5.13597L341.073 70.8L340.689 136.464C340.689 137.616 341.265 138 342.225 138H368.145C369.105 138 369.681 137.616 369.681 136.464L369.105 127.44C375.825 135.504 385.425 139.92 397.713 139.92C424.593 139.92 441.105 116.88 441.105 88.272C441.105 59.472 426.321 37.2 398.289 37.2ZM389.649 120.336C375.825 120.144 368.337 108.624 368.529 87.504C368.721 67.152 376.209 56.784 390.225 56.784C404.049 56.592 411.729 67.728 411.729 89.424C411.729 109.392 404.241 120.72 389.649 120.336Z" fill="#222222"/>
<path d="M483.513 3.59997H457.401C456.441 3.59997 455.865 4.17597 455.865 5.13597V27.984C455.865 28.944 456.441 29.52 457.401 29.52H483.513C484.473 29.52 485.049 28.944 485.049 27.984V5.13597C485.049 4.17597 484.473 3.59997 483.513 3.59997ZM484.665 88.656L485.049 40.656C485.049 39.504 484.473 39.12 483.513 39.12H457.401C456.441 39.12 455.865 39.504 455.865 40.656L456.249 88.656L455.865 136.464C455.865 137.616 456.441 138 457.401 138H483.513C484.473 138 485.049 137.616 485.049 136.464L484.665 88.656Z" fill="#222222"/>
<path d="M530.434 94.032C530.434 71.376 545.41 60.048 565.762 60.048C566.914 60.048 568.45 60.048 569.602 60.24C570.562 60.24 571.138 59.664 571.138 58.704V40.464C571.138 39.696 570.754 38.928 569.794 38.928C568.258 38.544 566.53 38.352 564.994 38.352C550.594 38.352 537.346 44.112 529.666 55.824L530.434 40.656C530.434 39.504 529.858 39.12 528.898 39.12H503.362C502.402 39.12 501.826 39.504 501.826 40.656L502.402 88.464L501.826 136.464C501.826 137.616 502.402 138 503.362 138H528.898C529.858 138 530.434 137.424 530.434 136.464V94.032Z" fill="#222222"/>
<path d="M672.309 55.44H613.941L614.325 5.13597C614.325 3.98397 613.749 3.59997 612.789 3.59997H586.293C585.333 3.59997 584.757 3.98397 584.757 5.13597L585.333 70.8L584.757 136.464C584.757 137.616 585.333 138 586.293 138H612.789C613.749 138 614.325 137.616 614.325 136.464L613.941 77.136H672.309L671.925 136.464C671.925 137.616 672.501 138 673.461 138H699.957C700.917 138 701.493 137.616 701.493 136.464L700.917 70.8L701.493 5.13597C701.493 3.98397 700.917 3.59997 699.957 3.59997H673.461C672.501 3.59997 671.925 3.98397 671.925 5.13597L672.309 55.44Z" fill="#222222"/>
<path d="M767.808 121.296C753.984 121.296 746.688 113.04 745.536 94.416H816.384C817.344 94.416 817.92 93.84 817.92 92.88C817.344 58.32 799.296 36.624 766.848 36.624C735.36 36.624 716.544 57.36 716.544 88.848C716.544 118.8 734.4 140.496 767.424 140.496C795.264 140.496 812.544 124.368 814.848 106.128C815.04 105.168 814.464 104.592 813.504 104.592H788.736C787.968 104.592 787.392 104.976 787.008 105.936C784.512 116.88 777.6 121.296 767.808 121.296ZM767.04 55.632C779.712 55.632 785.664 65.616 786.816 76.176H746.304C748.608 62.544 755.328 55.632 767.04 55.632Z" fill="#222222"/>
<path d="M860.926 70.8L861.502 5.13597C861.502 3.98397 860.926 3.59997 859.966 3.59997H834.622C833.662 3.59997 833.086 3.98397 833.086 5.13597L833.662 70.8L833.086 136.464C833.086 137.616 833.662 138 834.622 138H859.966C860.926 138 861.502 137.616 861.502 136.464L860.926 70.8Z" fill="#222222"/>
<path d="M936.264 37.2C923.784 37.2 913.992 42.192 907.08 50.64L907.656 40.656C907.656 39.504 907.08 39.12 906.12 39.12H880.2C879.24 39.12 878.664 39.504 878.664 40.656L879.048 97.872L878.664 169.104C878.664 170.256 879.24 170.64 880.2 170.64H906.312C907.272 170.64 907.848 170.256 907.848 169.104L907.464 127.824C914.184 135.696 923.784 139.92 935.688 139.92C962.568 139.92 979.08 116.88 979.08 88.272C979.08 59.472 964.296 37.2 936.264 37.2ZM927.624 120.528C913.8 120.528 906.312 108.816 906.504 87.888C906.696 67.344 914.184 56.784 928.2 56.784C942.216 56.784 949.704 67.92 949.704 89.808C949.704 109.968 942.216 120.528 927.624 120.528Z" fill="#222222"/>
</svg>
