<svg width="204" height="37" viewBox="0 0 204 37" fill="none" xmlns="http://www.w3.org/2000/svg">
  <path
    d="M12.88 30.14C20.2 30.14 24.76 26.94 24.76 21.02C24.76 9.93999 6.79998 14.78 6.79998 8.81999C6.79998 6.49999 8.87998 5.49999 11.76 5.49999C15.2 5.49999 17.24 6.9 17.52 9.45999C17.56 9.65999 17.68 9.77999 17.88 9.77999H23.6C23.8 9.77999 23.96 9.65999 23.92 9.41999C23.08 3.45999 18.56 0.899994 12 0.899994C4.83998 0.899994 0.759982 4.17999 0.759982 9.41999C0.759982 20.54 18.64 15.54 18.64 21.86C18.64 24.5 16.64 25.58 13 25.58C8.39998 25.58 6.95998 23.5 6.59998 20.38C6.55998 20.18 6.43998 20.06 6.23998 20.06H0.519982C0.319982 20.06 0.199982 20.18 0.199982 20.38C0.439982 27.06 5.51998 30.14 12.88 30.14Z"
    fill="#134BC5" />
  <path
    d="M33.5209 1.49999H28.0809C27.8809 1.49999 27.7609 1.61999 27.7609 1.81999V6.57999C27.7609 6.77999 27.8809 6.9 28.0809 6.9H33.5209C33.7209 6.9 33.8409 6.77999 33.8409 6.57999V1.81999C33.8409 1.61999 33.7209 1.49999 33.5209 1.49999ZM33.7609 19.22L33.8409 9.21999C33.8409 8.97999 33.7209 8.89999 33.5209 8.89999H28.0809C27.8809 8.89999 27.7609 8.97999 27.7609 9.21999L27.8409 19.22L27.7609 29.18C27.7609 29.42 27.8809 29.5 28.0809 29.5H33.5209C33.7209 29.5 33.8409 29.42 33.8409 29.18L33.7609 19.22Z"
    fill="#134BC5" />
  <path
    d="M67.7362 22.1V16.42C67.7362 10.94 65.3362 8.41999 61.1762 8.41999C58.7362 8.41999 56.6962 9.17999 54.9362 12.3C53.9762 9.65999 51.8962 8.41999 49.0162 8.41999C46.3762 8.41999 44.5362 9.5 43.0962 11.5L43.2162 9.21999C43.2162 8.97999 43.0962 8.89999 42.8962 8.89999H37.7362C37.5362 8.89999 37.4162 9.01999 37.4162 9.21999V22.1L37.3362 29.18C37.3362 29.42 37.4562 29.5 37.6562 29.5H43.1762C43.3762 29.5 43.4962 29.42 43.4962 29.18L43.4162 22.1V19.22C43.4162 15.02 45.3362 12.82 47.0162 12.82C48.6962 12.82 49.6562 14.02 49.6562 16.5V22.1L49.5762 29.18C49.5762 29.42 49.6962 29.5 49.8962 29.5H55.3362C55.5362 29.5 55.6562 29.42 55.6562 29.18L55.5762 22.1V19.22C55.5762 15.02 57.5362 12.82 59.1762 12.82C60.8162 12.82 61.8162 14.02 61.8162 16.5V22.1L61.7362 29.18C61.7362 29.42 61.8562 29.5 62.0562 29.5H67.4962C67.6962 29.5 67.8162 29.42 67.8162 29.18L67.7362 22.1Z"
    fill="#134BC5" />
  <path
    d="M82.9769 8.49999C80.4169 8.49999 78.4169 9.5 76.9769 11.22V1.81999C76.9769 1.61999 76.8568 1.49999 76.6569 1.49999H71.2969C71.0969 1.49999 70.9769 1.57999 70.9769 1.81999L71.0568 15.5L70.9769 29.18C70.9769 29.42 71.0969 29.5 71.2969 29.5H76.6969C76.8969 29.5 77.0169 29.42 77.0169 29.18L76.8969 27.3C78.2969 28.98 80.2969 29.9 82.8568 29.9C88.4569 29.9 91.8969 25.1 91.8969 19.14C91.8969 13.14 88.8168 8.49999 82.9769 8.49999ZM81.1769 25.82C78.2969 25.78 76.7369 23.38 76.7769 18.98C76.8169 14.74 78.3769 12.58 81.2969 12.58C84.1768 12.54 85.7768 14.86 85.7768 19.38C85.7768 23.54 84.2169 25.9 81.1769 25.82Z"
    fill="#134BC5" />
  <path
    d="M100.732 1.49999H95.2918C95.0919 1.49999 94.9719 1.61999 94.9719 1.81999V6.57999C94.9719 6.77999 95.0919 6.9 95.2918 6.9H100.732C100.932 6.9 101.052 6.77999 101.052 6.57999V1.81999C101.052 1.61999 100.932 1.49999 100.732 1.49999ZM100.972 19.22L101.052 9.21999C101.052 8.97999 100.932 8.89999 100.732 8.89999H95.2918C95.0919 8.89999 94.9719 8.97999 94.9719 9.21999L95.0519 19.22L94.9719 29.18C94.9719 29.42 95.0919 29.5 95.2918 29.5H100.732C100.932 29.5 101.052 29.42 101.052 29.18L100.972 19.22Z"
    fill="#134BC5" />
  <path
    d="M110.507 20.34C110.507 15.62 113.627 13.26 117.867 13.26C118.107 13.26 118.427 13.26 118.667 13.3C118.867 13.3 118.987 13.18 118.987 12.98V9.17999C118.987 9.01999 118.907 8.85999 118.707 8.85999C118.387 8.77999 118.027 8.73999 117.707 8.73999C114.707 8.73999 111.947 9.93999 110.347 12.38L110.507 9.21999C110.507 8.97999 110.387 8.89999 110.187 8.89999H104.867C104.667 8.89999 104.547 8.97999 104.547 9.21999L104.667 19.18L104.547 29.18C104.547 29.42 104.667 29.5 104.867 29.5H110.187C110.387 29.5 110.507 29.38 110.507 29.18V20.34Z"
    fill="#134BC5" />
  <path
    d="M140.064 12.3H127.904L127.984 1.81999C127.984 1.57999 127.864 1.49999 127.664 1.49999H122.144C121.944 1.49999 121.824 1.57999 121.824 1.81999L121.944 15.5L121.824 29.18C121.824 29.42 121.944 29.5 122.144 29.5H127.664C127.864 29.5 127.984 29.42 127.984 29.18L127.904 16.82H140.064L139.984 29.18C139.984 29.42 140.104 29.5 140.304 29.5H145.824C146.024 29.5 146.144 29.42 146.144 29.18L146.024 15.5L146.144 1.81999C146.144 1.57999 146.024 1.49999 145.824 1.49999H140.304C140.104 1.49999 139.984 1.57999 139.984 1.81999L140.064 12.3Z"
    fill="#134BC5" />
  <path
    d="M159.96 26.02C157.08 26.02 155.56 24.3 155.32 20.42H170.08C170.28 20.42 170.4 20.3 170.4 20.1C170.28 12.9 166.52 8.38 159.76 8.38C153.2 8.38 149.28 12.7 149.28 19.26C149.28 25.5 153 30.02 159.88 30.02C165.68 30.02 169.28 26.66 169.76 22.86C169.8 22.66 169.68 22.54 169.48 22.54H164.32C164.16 22.54 164.04 22.62 163.96 22.82C163.44 25.1 162 26.02 159.96 26.02ZM159.8 12.34C162.44 12.34 163.68 14.42 163.92 16.62H155.48C155.96 13.78 157.36 12.34 159.8 12.34Z"
    fill="#134BC5" />
  <path
    d="M179.36 15.5L179.48 1.81999C179.48 1.57999 179.36 1.49999 179.16 1.49999H173.88C173.68 1.49999 173.56 1.57999 173.56 1.81999L173.68 15.5L173.56 29.18C173.56 29.42 173.68 29.5 173.88 29.5H179.16C179.36 29.5 179.48 29.42 179.48 29.18L179.36 15.5Z"
    fill="#134BC5" />
  <path
    d="M195.055 8.49999C192.455 8.49999 190.415 9.54 188.975 11.3L189.095 9.21999C189.095 8.97999 188.975 8.89999 188.775 8.89999H183.375C183.175 8.89999 183.055 8.97999 183.055 9.21999L183.135 21.14L183.055 35.98C183.055 36.22 183.175 36.3 183.375 36.3H188.815C189.015 36.3 189.135 36.22 189.135 35.98L189.055 27.38C190.455 29.02 192.455 29.9 194.935 29.9C200.535 29.9 203.975 25.1 203.975 19.14C203.975 13.14 200.895 8.49999 195.055 8.49999ZM193.255 25.86C190.375 25.86 188.815 23.42 188.855 19.06C188.895 14.78 190.455 12.58 193.375 12.58C196.295 12.58 197.855 14.9 197.855 19.46C197.855 23.66 196.295 25.86 193.255 25.86Z"
    fill="#134BC5" />
</svg>