<svg width="148" height="24" viewBox="0 0 148 24" fill="none" xmlns="http://www.w3.org/2000/svg">
<path d="M14.9179 4.96581C15.0124 5.16168 15.0885 5.34324 15.1622 5.54554L11.5329 6.86757C11.5017 6.79197 11.4657 6.71065 11.4245 6.62474C11.2713 6.30541 11.0784 5.98611 10.842 5.68719C10.1583 4.82249 9.25383 4.29793 8.11002 4.29793C6.66306 4.29793 5.55675 5.22525 5.55675 6.50518C5.55675 8.00842 6.561 8.98872 9.36704 10.5649C13.0089 12.6337 14.8836 14.7988 14.8836 17.619C14.8836 21.4169 11.9135 23.8381 7.63504 23.8381C4.96552 23.8381 2.9578 22.8133 1.50779 21.1003C0.998827 20.499 0.596423 19.854 0.289788 19.2092C0.182605 18.9838 0.0951395 18.7748 0.025986 18.5877C0.01673 18.5626 0.00806802 18.5387 0 18.5159L3.61357 17.1557C3.66096 17.2647 3.71674 17.3843 3.78101 17.512C3.9824 17.9123 4.22584 18.3127 4.51261 18.6873C5.34402 19.7734 6.3674 20.4325 7.59186 20.4325C9.27558 20.4325 10.4258 19.3889 10.4258 17.8817C10.4258 16.2648 9.42474 15.3309 6.22804 13.5195C2.91503 11.63 1.09894 9.39412 1.09894 6.76786C1.09894 3.37456 4.06488 0.932719 8.00207 0.932719C10.5845 0.932719 12.4842 1.82736 13.8174 3.32071C14.2845 3.84393 14.6473 4.40501 14.9179 4.96581ZM22.7006 23.4874H18.3507V7.08867H22.7006V23.4874ZM20.5576 4.88074C19.118 4.88074 17.9508 3.78828 17.9508 2.44037C17.9508 1.09245 19.118 0 20.5576 0C21.9971 0 23.1643 1.09245 23.1643 2.44037C23.1643 3.78828 21.9971 4.88074 20.5576 4.88074ZM30.8829 13.4445V23.5635H26.7489V7.16481H30.4024L30.6082 9.45186L30.9261 9.00036C31.8865 7.63664 33.4172 6.90212 35.2929 6.90212C37.3653 6.90212 38.9575 7.8088 39.8192 9.48382L39.9945 9.82442L40.1778 9.48757C41.0791 7.83168 42.7322 6.90212 44.7925 6.90212C47.9716 6.90212 49.8821 8.96394 49.8821 12.5312V23.5635H45.7481V13.5455C45.7481 11.4098 44.8658 10.328 43.1732 10.328C41.43 10.328 40.3825 11.461 40.3825 13.5455V23.5635H36.2485V13.5455C36.2485 11.4098 35.3662 10.328 33.6737 10.328C31.9187 10.328 30.8829 11.4003 30.8829 13.4445ZM57.263 23.378H53.5439L53.5432 1.11926H57.8931V8.72346L58.2469 8.32599C59.1675 7.29164 60.5407 6.74127 62.2383 6.74127C66.1445 6.74127 68.2562 8.85154 68.2562 12.7531V17.6891C68.2562 21.5713 66.0209 23.7822 62.1304 23.7822C60.1804 23.7822 58.6932 23.1587 57.7595 21.9326L57.447 21.5223L57.263 23.378ZM57.8931 13.4005V17.159C57.8931 19.1009 59.0615 20.3159 60.8997 20.3159C62.738 20.3159 63.9064 19.1009 63.9064 17.159V13.4005C63.9064 11.4585 62.738 10.2435 60.8997 10.2435C59.0615 10.2435 57.8931 11.4585 57.8931 13.4005ZM75.8892 23.4874H71.5393V7.08867H75.8892V23.4874ZM73.9461 4.88074C72.5066 4.88074 71.3394 3.78828 71.3394 2.44037C71.3394 1.09245 72.5066 0 73.9461 0C75.3856 0 76.5529 1.09245 76.5529 2.44037C76.5529 3.78828 75.3856 4.88074 73.9461 4.88074ZM84.0328 9.67152C85.0069 7.9363 86.727 6.99561 89.0531 6.90759V11.015H87.418C85.2125 11.015 83.8716 12.3733 83.8716 14.8388V23.5433H79.7376V7.14461H83.4545L83.7095 10.2473L84.0328 9.67152ZM105.743 5.54554L102.113 6.86757C102.082 6.79197 102.046 6.71065 102.005 6.62474C101.852 6.30541 101.659 5.98611 101.423 5.68719C100.739 4.82249 99.8344 4.29793 98.6906 4.29793C97.2437 4.29793 96.1374 5.22525 96.1374 6.50518C96.1374 8.00842 97.1416 8.98872 99.9477 10.5649C103.59 12.6337 105.464 14.7988 105.464 17.619C105.464 21.4169 102.494 23.8381 98.2156 23.8381C95.5461 23.8381 93.5384 22.8133 92.0884 21.1003C91.5794 20.499 91.177 19.854 90.8704 19.2092C90.7632 18.9838 90.6758 18.7748 90.6066 18.5877C90.5974 18.5626 90.5887 18.5387 90.5806 18.5159L94.1942 17.1557C94.2416 17.2647 94.2973 17.3843 94.3616 17.512C94.563 17.9123 94.8065 18.3127 95.0932 18.6873C95.9246 19.7734 96.948 20.4325 98.1725 20.4325C99.8562 20.4325 101.006 19.3889 101.006 17.8817C101.006 16.2648 100.005 15.3309 96.8086 13.5195C93.4956 11.63 91.6796 9.39412 91.6796 6.76786C91.6796 3.37456 94.6455 0.932719 98.5827 0.932719C101.165 0.932719 103.065 1.82736 104.398 3.32071C104.865 3.84393 105.228 4.40501 105.498 4.96581C105.593 5.16168 105.669 5.34324 105.743 5.54554ZM107.732 17.3948V13.5438C107.732 9.49566 110.661 6.90212 115.049 6.90212C119.405 6.90212 122.229 9.39946 122.229 13.4144V17.2654C122.229 21.3026 119.278 23.9071 114.911 23.9071C110.542 23.9071 107.732 21.4305 107.732 17.3948ZM111.866 13.5195V17.2897C111.866 19.2319 113.076 20.4408 114.98 20.4408C116.884 20.4408 118.095 19.2319 118.095 17.2897V13.5195C118.095 11.5773 116.884 10.3684 114.98 10.3684C113.076 10.3684 111.866 11.5773 111.866 13.5195ZM130.653 7.90414H134.323V10.7642H130.653V23.4946H126.519V10.7642H123.928V7.90414H126.519V5.73731C126.519 2.61642 128.394 0.932719 131.716 0.932719C132.822 0.932719 133.752 1.01864 134.514 1.16144C134.779 1.21106 135.003 1.26401 135.187 1.31668C135.21 1.3233 135.232 1.32958 135.251 1.33548L134.789 4.25887C134.68 4.23841 134.56 4.21817 134.429 4.19912C133.985 4.13457 133.506 4.09586 133.012 4.09586C131.42 4.09586 130.653 4.78793 130.653 6.3516V7.90414ZM139.548 3.35779H143.683V8.0054H148V10.8654H143.683V18.5286C143.683 19.9322 144.371 20.5338 145.825 20.5338C146.274 20.5338 146.742 20.4951 147.202 20.4306C147.343 20.4109 147.474 20.39 147.594 20.3688L147.983 23.6477C147.961 23.653 147.938 23.6587 147.912 23.6648C147.719 23.7109 147.484 23.7572 147.208 23.8005C146.415 23.9251 145.451 24 144.314 24C141.261 24 139.548 22.4169 139.548 19.4985V10.8654H136.525V8.0054H139.548V3.35779Z" fill="#134BC5"/>
</svg>
